M48
;DRILL file {KiCad 4.0.6} date 03/11/18 13:14:56
;FORMAT={3:3/ absolute / metric / suppress leading zeros}
FMAT,2
METRIC,TZ
T1C0.350
T2C0.500
T3C0.700
T4C0.900
T5C1.000
T6C2.200
%
G90
G05
M71
T1
X69000Y-91700
X71000Y-91700
X72300Y-100500
X72390Y-83312
X73290Y-94950
X80010Y-78232
X80400Y-89950
X82625Y-68075
X83566Y-69850
X84200Y-100500
X86030Y-85369
X86225Y-63000
X86674Y-67173
X86875Y-65600
X87110Y-96520
X88700Y-76025
X89075Y-79000
X89080Y-80620
X89916Y-73660
X89916Y-74930
X90125Y-62175
X90932Y-77108
X90932Y-77961
X90932Y-78813
X90932Y-79666
X90932Y-80518
X91050Y-95000
X91100Y-88000
X91100Y-91900
X91440Y-82804
X92456Y-82804
X92710Y-67056
X92710Y-69850
X93218Y-87122
X93218Y-90932
X93250Y-94850
X93472Y-82804
X94070Y-87122
X94471Y-82804
X94923Y-87122
X94996Y-68326
X95323Y-82804
X96176Y-82804
X96200Y-100500
X96774Y-71628
X97028Y-82804
X97100Y-86800
X97200Y-95050
X97810Y-73180
X98044Y-74586
X98044Y-75438
X98044Y-77724
X98044Y-78994
X98044Y-80862
X98044Y-81715
X98300Y-92150
X98950Y-73920
X103200Y-94300
X103632Y-77724
X104300Y-68000
X104625Y-79700
X105000Y-85500
X107100Y-74400
X108300Y-66600
T3
X90150Y-60400
X95230Y-60400
T4
X107500Y-88460
X107500Y-89730
X107500Y-91000
X107500Y-92270
T5
X84500Y-61000
X87040Y-61000
X103800Y-73500
X103800Y-76040
X110000Y-95500
X112500Y-74500
X112500Y-77040
X112500Y-79580
X112500Y-83000
X112500Y-85540
X112500Y-89460
X112500Y-92000
X112540Y-95500
T6
X69500Y-62000
X69550Y-104500
X111980Y-104500
X112000Y-62000
T2
X68825Y-66200G85X68125Y-66200
G05
X68825Y-72800G85X68125Y-72800
G05
T0
M30
