G04 #@! TF.FileFunction,Soldermask,Top*
%FSLAX46Y46*%
G04 Gerber Fmt 4.6, Leading zero omitted, Abs format (unit mm)*
G04 Created by KiCad (PCBNEW 4.0.6) date 03/11/18 13:26:34*
%MOMM*%
%LPD*%
G01*
G04 APERTURE LIST*
%ADD10C,0.100000*%
%ADD11R,2.150000X0.850000*%
%ADD12C,2.600000*%
%ADD13R,2.100000X2.100000*%
%ADD14O,2.100000X2.100000*%
%ADD15R,1.150000X1.600000*%
%ADD16R,1.600000X1.150000*%
%ADD17R,2.200000X1.470000*%
%ADD18O,2.200000X1.470000*%
%ADD19R,1.400000X1.400000*%
%ADD20R,2.100000X2.400000*%
%ADD21R,2.100000X2.300000*%
%ADD22R,1.750000X0.800000*%
%ADD23R,1.800000X2.000000*%
%ADD24O,2.000000X1.300000*%
%ADD25R,1.300000X1.600000*%
%ADD26C,1.800000*%
%ADD27O,1.800000X1.800000*%
%ADD28R,1.600000X1.300000*%
%ADD29R,2.400000X2.400000*%
%ADD30R,1.150000X0.700000*%
%ADD31R,1.275000X1.125000*%
%ADD32R,0.700000X0.700000*%
%ADD33R,1.300000X1.200000*%
%ADD34R,1.200000X1.300000*%
%ADD35R,0.980000X0.650000*%
%ADD36R,0.650000X0.980000*%
%ADD37R,3.100000X3.100000*%
G04 APERTURE END LIST*
D10*
D11*
X81600000Y-86025000D03*
X81600000Y-85375000D03*
X81600000Y-84725000D03*
X81600000Y-84075000D03*
X81600000Y-83425000D03*
X81600000Y-82775000D03*
X81600000Y-82125000D03*
X81600000Y-81475000D03*
X81600000Y-80825000D03*
X81600000Y-80175000D03*
X81600000Y-79525000D03*
X81600000Y-78875000D03*
X81600000Y-78225000D03*
X81600000Y-77575000D03*
X74400000Y-77575000D03*
X74400000Y-78225000D03*
X74400000Y-78875000D03*
X74400000Y-79525000D03*
X74400000Y-80175000D03*
X74400000Y-80825000D03*
X74400000Y-81475000D03*
X74400000Y-82125000D03*
X74400000Y-82775000D03*
X74400000Y-83425000D03*
X74400000Y-84075000D03*
X74400000Y-84725000D03*
X74400000Y-85375000D03*
X74400000Y-86025000D03*
D12*
X69500000Y-62000000D03*
X111980000Y-104500000D03*
X69550000Y-104500000D03*
D13*
X84500000Y-61000000D03*
D14*
X87040000Y-61000000D03*
D15*
X80000000Y-65950000D03*
X80000000Y-67850000D03*
D16*
X84450000Y-63000000D03*
X82550000Y-63000000D03*
X98775000Y-60950000D03*
X100675000Y-60950000D03*
X93250000Y-73660000D03*
X91350000Y-73660000D03*
X93250000Y-74930000D03*
X91350000Y-74930000D03*
D15*
X109500000Y-78050000D03*
X109500000Y-79950000D03*
X97100000Y-88250000D03*
X97100000Y-90150000D03*
D16*
X91150000Y-90700000D03*
X89250000Y-90700000D03*
D15*
X72300000Y-77650000D03*
X72300000Y-75750000D03*
D16*
X91150000Y-89300000D03*
X89250000Y-89300000D03*
X103300000Y-63000000D03*
X105200000Y-63000000D03*
D15*
X106330000Y-66590000D03*
X106330000Y-64690000D03*
D16*
X93320000Y-92240000D03*
X95220000Y-92240000D03*
X82290000Y-88210000D03*
X80390000Y-88210000D03*
X70850000Y-79300000D03*
X68950000Y-79300000D03*
X70850000Y-80800000D03*
X68950000Y-80800000D03*
D15*
X97500000Y-100450000D03*
X97500000Y-98550000D03*
X73500000Y-100500000D03*
X73500000Y-98600000D03*
X85500000Y-100450000D03*
X85500000Y-98550000D03*
D17*
X107500000Y-92270000D03*
D18*
X107500000Y-91000000D03*
X107500000Y-89730000D03*
X107500000Y-88460000D03*
D13*
X112500000Y-83000000D03*
D14*
X112500000Y-85540000D03*
D13*
X112500000Y-89460000D03*
D14*
X112500000Y-92000000D03*
D13*
X110000000Y-95500000D03*
D14*
X112540000Y-95500000D03*
D19*
X96450000Y-63000000D03*
X93950000Y-63000000D03*
D20*
X75500000Y-64000000D03*
X75500000Y-68000000D03*
D21*
X68475000Y-70700000D03*
X68475000Y-68300000D03*
D22*
X72500000Y-69500000D03*
X72500000Y-68200000D03*
X72500000Y-68850000D03*
X72500000Y-70150000D03*
X72500000Y-70800000D03*
D23*
X72250000Y-66300000D03*
X72250000Y-72700000D03*
D24*
X68475000Y-66200000D03*
X68475000Y-72800000D03*
D13*
X103800000Y-76040000D03*
D14*
X103800000Y-73500000D03*
D13*
X112500000Y-74500000D03*
D14*
X112500000Y-77040000D03*
X112500000Y-79580000D03*
D25*
X78000000Y-65900000D03*
X78000000Y-63700000D03*
X103250000Y-92750000D03*
X103250000Y-90550000D03*
D26*
X90150000Y-60400000D03*
D27*
X95230000Y-60400000D03*
D25*
X98000000Y-71800000D03*
X98000000Y-69600000D03*
X91500000Y-69600000D03*
X91500000Y-71800000D03*
X89500000Y-69610000D03*
X89500000Y-71810000D03*
D28*
X85060000Y-74530000D03*
X87260000Y-74530000D03*
X87260000Y-76030000D03*
X85060000Y-76030000D03*
D25*
X91000000Y-64900000D03*
X91000000Y-67100000D03*
X89000000Y-67090000D03*
X89000000Y-64890000D03*
X77880000Y-73030000D03*
X77880000Y-75230000D03*
X76280000Y-73030000D03*
X76280000Y-75230000D03*
D28*
X109290000Y-76030000D03*
X107090000Y-76030000D03*
D25*
X68976198Y-87726768D03*
X68976198Y-89926768D03*
X70976198Y-87726768D03*
X70976198Y-89926768D03*
D28*
X85400000Y-79000000D03*
X87600000Y-79000000D03*
X85400000Y-80600000D03*
X87600000Y-80600000D03*
X91050000Y-93650000D03*
X93250000Y-93650000D03*
X87429602Y-85368580D03*
X89629602Y-85368580D03*
X83100000Y-96520000D03*
X85300000Y-96520000D03*
X71070000Y-96530000D03*
X73270000Y-96530000D03*
X95090000Y-96530000D03*
X97290000Y-96530000D03*
D29*
X105500000Y-100500000D03*
X99500000Y-100500000D03*
X81500000Y-100500000D03*
X75500000Y-100500000D03*
X93500000Y-100500000D03*
X87500000Y-100500000D03*
D30*
X82612500Y-65612500D03*
X82612500Y-66112500D03*
X82612500Y-66612500D03*
X82612500Y-67112500D03*
X85512500Y-67112500D03*
X85512500Y-66612500D03*
X85512500Y-66112500D03*
X85512500Y-65612500D03*
D31*
X84500000Y-66725000D03*
X84500000Y-66000000D03*
X83625000Y-66725000D03*
X83625000Y-66000000D03*
D32*
X93500000Y-88500000D03*
X93500000Y-89000000D03*
X93500000Y-89500000D03*
X93500000Y-90000000D03*
X94000000Y-88500000D03*
X94000000Y-90000000D03*
X94500000Y-88500000D03*
X94500000Y-90000000D03*
X95000000Y-88500000D03*
X95000000Y-89000000D03*
X95000000Y-89500000D03*
X95000000Y-90000000D03*
D25*
X104620000Y-81110000D03*
X104620000Y-83310000D03*
D33*
X106500000Y-83550000D03*
X106500000Y-85450000D03*
X108500000Y-84500000D03*
D34*
X95950000Y-69700000D03*
X94050000Y-69700000D03*
X95000000Y-71700000D03*
X87000000Y-69700000D03*
X85100000Y-69700000D03*
X86050000Y-71700000D03*
D33*
X94000000Y-65100000D03*
X94000000Y-67000000D03*
X96000000Y-66050000D03*
D34*
X102350000Y-66500000D03*
X104250000Y-66500000D03*
X103300000Y-64500000D03*
D25*
X68976198Y-83226768D03*
X68976198Y-85426768D03*
X70976198Y-83226768D03*
X70976198Y-85426768D03*
D12*
X112000000Y-62000000D03*
D35*
X92287500Y-77950000D03*
X92287500Y-78450000D03*
X92287500Y-78950000D03*
X92287500Y-79450000D03*
X92287500Y-79950000D03*
X92287500Y-80450000D03*
D36*
X92950000Y-81112500D03*
X93450000Y-81112500D03*
X93950000Y-81112500D03*
X94450000Y-81112500D03*
X94950000Y-81112500D03*
X95450000Y-81112500D03*
D35*
X96112500Y-80450000D03*
X96112500Y-79950000D03*
X96112500Y-79450000D03*
X96112500Y-78950000D03*
X96112500Y-78450000D03*
X96112500Y-77950000D03*
D36*
X95450000Y-77287500D03*
X94950000Y-77287500D03*
X94450000Y-77287500D03*
X93950000Y-77287500D03*
X93450000Y-77287500D03*
X92950000Y-77287500D03*
D37*
X94200000Y-79200000D03*
M02*
