G04 #@! TF.FileFunction,Copper,L3,Inr,Signal*
%FSLAX46Y46*%
G04 Gerber Fmt 4.6, Leading zero omitted, Abs format (unit mm)*
G04 Created by KiCad (PCBNEW 4.0.6) date 03/11/18 13:26:33*
%MOMM*%
%LPD*%
G01*
G04 APERTURE LIST*
%ADD10C,0.100000*%
%ADD11C,0.300000*%
%ADD12R,1.700000X1.700000*%
%ADD13O,1.700000X1.700000*%
%ADD14R,1.800000X1.070000*%
%ADD15O,1.800000X1.070000*%
%ADD16O,1.600000X0.900000*%
%ADD17C,1.400000*%
%ADD18O,1.400000X1.400000*%
%ADD19C,0.700000*%
%ADD20C,0.152400*%
G04 APERTURE END LIST*
D10*
D11*
X79600001Y-104778571D02*
X80528572Y-104778571D01*
X80028572Y-105350000D01*
X80242858Y-105350000D01*
X80385715Y-105421429D01*
X80457144Y-105492857D01*
X80528572Y-105635714D01*
X80528572Y-105992857D01*
X80457144Y-106135714D01*
X80385715Y-106207143D01*
X80242858Y-106278571D01*
X79814286Y-106278571D01*
X79671429Y-106207143D01*
X79600001Y-106135714D01*
D12*
X84500000Y-61000000D03*
D13*
X87040000Y-61000000D03*
D14*
X107500000Y-92270000D03*
D15*
X107500000Y-91000000D03*
X107500000Y-89730000D03*
X107500000Y-88460000D03*
D12*
X112500000Y-83000000D03*
D13*
X112500000Y-85540000D03*
D12*
X112500000Y-89460000D03*
D13*
X112500000Y-92000000D03*
D12*
X110000000Y-95500000D03*
D13*
X112540000Y-95500000D03*
D16*
X68475000Y-66200000D03*
X68475000Y-72800000D03*
D12*
X103800000Y-76040000D03*
D13*
X103800000Y-73500000D03*
D12*
X112500000Y-74500000D03*
D13*
X112500000Y-77040000D03*
X112500000Y-79580000D03*
D17*
X90150000Y-60400000D03*
D18*
X95230000Y-60400000D03*
D19*
X92710000Y-67056000D03*
X92710000Y-69850000D03*
X83566000Y-69850000D03*
X86225000Y-63000000D03*
X82625000Y-68075000D03*
X80400000Y-89950000D03*
X91050000Y-95000000D03*
X89916000Y-74930000D03*
X89916000Y-73660000D03*
X96200000Y-100500000D03*
X84200000Y-100500000D03*
X72300000Y-100500000D03*
X71000000Y-91700000D03*
X69000000Y-91700000D03*
X86029602Y-85368580D03*
X91100000Y-91900000D03*
X91100000Y-88000000D03*
X97100000Y-86800000D03*
X103200000Y-94300000D03*
X105000000Y-85500000D03*
X107100000Y-74400000D03*
X104300000Y-68000000D03*
X108300000Y-66600000D03*
X90932000Y-77960791D03*
X97200000Y-95050000D03*
X91440000Y-82804000D03*
X97810000Y-73180000D03*
X73290000Y-94950000D03*
X87110000Y-96520000D03*
X98950000Y-73920000D03*
X90932000Y-79665597D03*
X90932000Y-78813194D03*
X90932000Y-80518000D03*
X72390000Y-83312000D03*
X80010000Y-78232000D03*
X89075000Y-79000000D03*
X103632000Y-77724000D03*
X98044000Y-77724000D03*
X89080000Y-80620000D03*
X98044000Y-78994000D03*
X90125000Y-62175000D03*
X86875000Y-65600000D03*
X96774000Y-71628000D03*
X97028000Y-82804000D03*
X88700000Y-76025000D03*
X93472000Y-82804000D03*
X94996000Y-68326000D03*
X98044000Y-74585597D03*
X93250000Y-94850000D03*
X93218000Y-90932000D03*
X94470791Y-82804000D03*
X93218000Y-87122000D03*
X95323194Y-82804000D03*
X98044000Y-75438000D03*
X86673768Y-67173031D03*
X104625000Y-79700000D03*
X92456000Y-82804000D03*
X94070403Y-87122000D03*
X96175597Y-82804000D03*
X98300000Y-92150000D03*
X98044000Y-81714806D03*
X90932000Y-77108388D03*
X94922806Y-87122000D03*
X98044000Y-80862403D03*
D20*
X111800000Y-72250000D02*
X112500000Y-72950000D01*
X112500000Y-72950000D02*
X112500000Y-74500000D01*
X94934058Y-72250000D02*
X111800000Y-72250000D01*
X90932000Y-77960791D02*
X90353399Y-77382190D01*
X90353399Y-77382190D02*
X90353399Y-76830659D01*
X90353399Y-76830659D02*
X94934058Y-72250000D01*
X90932000Y-79665597D02*
X91426974Y-79665597D01*
X90861399Y-83081729D02*
X91504670Y-83725000D01*
X91426974Y-79665597D02*
X91800000Y-80038623D01*
X91800000Y-80038623D02*
X91800000Y-81587670D01*
X91800000Y-81587670D02*
X90861399Y-82526271D01*
X108905000Y-92270000D02*
X107500000Y-92270000D01*
X90861399Y-82526271D02*
X90861399Y-83081729D01*
X91504670Y-83725000D02*
X107950000Y-83725000D01*
X107950000Y-83725000D02*
X109500000Y-85275000D01*
X109500000Y-85275000D02*
X109500000Y-91675000D01*
X109500000Y-91675000D02*
X108905000Y-92270000D01*
X91252158Y-84334620D02*
X100778554Y-84334620D01*
X100778554Y-84334620D02*
X106173934Y-89730000D01*
X106173934Y-89730000D02*
X107500000Y-89730000D01*
X90932000Y-78813194D02*
X90145190Y-79600004D01*
X90145190Y-79600004D02*
X90145191Y-83227653D01*
X90145191Y-83227653D02*
X91252158Y-84334620D01*
X100904810Y-84029810D02*
X105335000Y-88460000D01*
X105335000Y-88460000D02*
X107500000Y-88460000D01*
X91378414Y-84029810D02*
X100904810Y-84029810D01*
X90932000Y-80518000D02*
X90450000Y-81000000D01*
X90450000Y-81000000D02*
X90450000Y-83101396D01*
X90450000Y-83101396D02*
X91378414Y-84029810D01*
X93250000Y-94850000D02*
X93250000Y-90964000D01*
X93250000Y-90964000D02*
X93218000Y-90932000D01*
X95065026Y-79700000D02*
X104625000Y-79700000D01*
X92456000Y-82804000D02*
X92456000Y-82309026D01*
X92456000Y-82309026D02*
X95065026Y-79700000D01*
X112500000Y-77040000D02*
X106135000Y-77040000D01*
X104775000Y-78400000D02*
X99576330Y-78400000D01*
X106135000Y-77040000D02*
X104775000Y-78400000D01*
X91751319Y-76289069D02*
X90932000Y-77108388D01*
X99576330Y-78400000D02*
X97465399Y-76289069D01*
X97465399Y-76289069D02*
X91751319Y-76289069D01*
M02*
