G04 #@! TF.FileFunction,Copper,L2,Inr,Signal*
%FSLAX46Y46*%
G04 Gerber Fmt 4.6, Leading zero omitted, Abs format (unit mm)*
G04 Created by KiCad (PCBNEW 4.0.6) date 03/11/18 13:26:33*
%MOMM*%
%LPD*%
G01*
G04 APERTURE LIST*
%ADD10C,0.100000*%
%ADD11C,0.300000*%
%ADD12R,1.700000X1.700000*%
%ADD13O,1.700000X1.700000*%
%ADD14R,1.800000X1.070000*%
%ADD15O,1.800000X1.070000*%
%ADD16O,1.600000X0.900000*%
%ADD17C,1.400000*%
%ADD18O,1.400000X1.400000*%
%ADD19C,0.700000*%
%ADD20C,0.152400*%
G04 APERTURE END LIST*
D10*
D11*
X77371429Y-104921429D02*
X77442858Y-104850000D01*
X77585715Y-104778571D01*
X77942858Y-104778571D01*
X78085715Y-104850000D01*
X78157144Y-104921429D01*
X78228572Y-105064286D01*
X78228572Y-105207143D01*
X78157144Y-105421429D01*
X77300001Y-106278571D01*
X78228572Y-106278571D01*
D12*
X84500000Y-61000000D03*
D13*
X87040000Y-61000000D03*
D14*
X107500000Y-92270000D03*
D15*
X107500000Y-91000000D03*
X107500000Y-89730000D03*
X107500000Y-88460000D03*
D12*
X112500000Y-83000000D03*
D13*
X112500000Y-85540000D03*
D12*
X112500000Y-89460000D03*
D13*
X112500000Y-92000000D03*
D12*
X110000000Y-95500000D03*
D13*
X112540000Y-95500000D03*
D16*
X68475000Y-66200000D03*
X68475000Y-72800000D03*
D12*
X103800000Y-76040000D03*
D13*
X103800000Y-73500000D03*
D12*
X112500000Y-74500000D03*
D13*
X112500000Y-77040000D03*
X112500000Y-79580000D03*
D17*
X90150000Y-60400000D03*
D18*
X95230000Y-60400000D03*
D19*
X92710000Y-67056000D03*
X92710000Y-69850000D03*
X83566000Y-69850000D03*
X86225000Y-63000000D03*
X82625000Y-68075000D03*
X80400000Y-89950000D03*
X91050000Y-95000000D03*
X89916000Y-74930000D03*
X89916000Y-73660000D03*
X96200000Y-100500000D03*
X84200000Y-100500000D03*
X72300000Y-100500000D03*
X71000000Y-91700000D03*
X69000000Y-91700000D03*
X86029602Y-85368580D03*
X91100000Y-91900000D03*
X91100000Y-88000000D03*
X97100000Y-86800000D03*
X103200000Y-94300000D03*
X105000000Y-85500000D03*
X107100000Y-74400000D03*
X104300000Y-68000000D03*
X108300000Y-66600000D03*
X90932000Y-77960791D03*
X97200000Y-95050000D03*
X91440000Y-82804000D03*
X97810000Y-73180000D03*
X73290000Y-94950000D03*
X87110000Y-96520000D03*
X98950000Y-73920000D03*
X90932000Y-79665597D03*
X90932000Y-78813194D03*
X90932000Y-80518000D03*
X72390000Y-83312000D03*
X80010000Y-78232000D03*
X89075000Y-79000000D03*
X103632000Y-77724000D03*
X98044000Y-77724000D03*
X89080000Y-80620000D03*
X98044000Y-78994000D03*
X90125000Y-62175000D03*
X86875000Y-65600000D03*
X96774000Y-71628000D03*
X97028000Y-82804000D03*
X88700000Y-76025000D03*
X93472000Y-82804000D03*
X94996000Y-68326000D03*
X98044000Y-74585597D03*
X93250000Y-94850000D03*
X93218000Y-90932000D03*
X94470791Y-82804000D03*
X93218000Y-87122000D03*
X95323194Y-82804000D03*
X98044000Y-75438000D03*
X86673768Y-67173031D03*
X104625000Y-79700000D03*
X92456000Y-82804000D03*
X94070403Y-87122000D03*
X96175597Y-82804000D03*
X98300000Y-92150000D03*
X98044000Y-81714806D03*
X90932000Y-77108388D03*
X94922806Y-87122000D03*
X98044000Y-80862403D03*
D20*
X91440000Y-82804000D02*
X91789999Y-83153999D01*
X91789999Y-83153999D02*
X91789999Y-90360329D01*
X91789999Y-90360329D02*
X96479670Y-95050000D01*
X96479670Y-95050000D02*
X97200000Y-95050000D01*
X97810000Y-73180000D02*
X97810000Y-71807670D01*
X73290000Y-73710000D02*
X73290000Y-89429670D01*
X97810000Y-71807670D02*
X97051729Y-71049399D01*
X75950601Y-71049399D02*
X73290000Y-73710000D01*
X97051729Y-71049399D02*
X75950601Y-71049399D01*
X73290000Y-89429670D02*
X73290000Y-94950000D01*
X98950000Y-73920000D02*
X99415620Y-74385620D01*
X99415620Y-74385620D02*
X99415620Y-93690710D01*
X99415620Y-93690710D02*
X96586330Y-96520000D01*
X96586330Y-96520000D02*
X87110000Y-96520000D01*
X97028000Y-82804000D02*
X97028000Y-71882000D01*
X97028000Y-71882000D02*
X96774000Y-71628000D01*
X93472000Y-77797000D02*
X91700000Y-76025000D01*
X91700000Y-76025000D02*
X88700000Y-76025000D01*
X93472000Y-82804000D02*
X93472000Y-77797000D01*
X92639399Y-86773469D02*
X94470791Y-84942077D01*
X94470791Y-84942077D02*
X94470791Y-82804000D01*
X93218000Y-90932000D02*
X93218000Y-90437026D01*
X93218000Y-90437026D02*
X92639399Y-89858425D01*
X92639399Y-89858425D02*
X92639399Y-86773469D01*
X93567999Y-86275935D02*
X94443934Y-85400000D01*
X94443934Y-85400000D02*
X94601554Y-85242380D01*
X93218000Y-87122000D02*
X93218000Y-86625934D01*
X93218000Y-86625934D02*
X94443934Y-85400000D01*
X95157620Y-85242380D02*
X95323194Y-85076806D01*
X95323194Y-85076806D02*
X95323194Y-82804000D01*
X94601554Y-85242380D02*
X95157620Y-85242380D01*
X94070403Y-87122000D02*
X94070403Y-86627026D01*
X94070403Y-86627026D02*
X94075000Y-86622429D01*
X95827810Y-85547190D02*
X96175597Y-85199403D01*
X94075000Y-86622429D02*
X94075000Y-86200000D01*
X94075000Y-86200000D02*
X94727810Y-85547190D01*
X94727810Y-85547190D02*
X95827810Y-85547190D01*
X96175597Y-85199403D02*
X96175597Y-82804000D01*
X98044000Y-81714806D02*
X98825616Y-81714806D01*
X99110810Y-82000000D02*
X99110810Y-91339190D01*
X98825616Y-81714806D02*
X99110810Y-82000000D01*
X99110810Y-91339190D02*
X98300000Y-92150000D01*
X98044000Y-80862403D02*
X97465399Y-81441004D01*
X97465399Y-81441004D02*
X97465399Y-82385069D01*
X97465399Y-82385069D02*
X97606601Y-82526271D01*
X97606601Y-82526271D02*
X97606601Y-84511399D01*
X97606601Y-84511399D02*
X96266000Y-85852000D01*
X96266000Y-85852000D02*
X95250000Y-85852000D01*
X95250000Y-85852000D02*
X94922806Y-86179194D01*
X94922806Y-86179194D02*
X94922806Y-87122000D01*
M02*
